<svg width="172" height="184" fill="none" xmlns="http://www.w3.org/2000/svg"><g opacity=".2" clip-path="url(#clip0_2234_8803)" fill="#fff"><path d="M30.098 0C-48.457 0-112 63.544-112 142.097c0 78.359 63.544 142.098 142.097 142.098 78.359 0 142.098-63.544 142.098-142.098C172 63.544 108.456 0 30.098 0zm0 275.034c-73.486 0-132.937-59.451-132.937-132.937 0-73.485 59.451-132.936 132.936-132.936 73.486 0 132.937 59.451 132.937 132.936 0 73.291-59.646 132.937-132.936 132.937z"/><path d="M30.099 30.602c-61.4 0-111.3 49.9-111.3 111.3 0 61.401 49.9 111.3 111.3 111.3s111.3-49.704 111.3-111.105c0-61.595-49.9-111.495-111.3-111.495zm0 205.642c-52.044 0-94.342-42.298-94.342-94.342 0-52.043 42.298-94.341 94.342-94.341s94.342 42.298 94.342 94.341c0 52.044-42.298 94.342-94.342 94.342z"/><path d="M30.098 79.527c-34.501 0-62.57 28.069-62.57 62.57 0 34.501 27.874 62.57 62.57 62.57 34.501 0 62.57-28.069 62.57-62.57-.195-34.501-28.069-62.57-62.57-62.57zm0 96.096c-18.517 0-33.526-15.009-33.526-33.526 0-18.518 15.009-33.526 33.526-33.526 18.517 0 33.526 15.008 33.526 33.526 0 18.517-15.009 33.526-33.526 33.526z"/></g><defs><clipPath id="clip0_2234_8803"><path fill="#fff" transform="translate(-112)" d="M0 0h284v284H0z"/></clipPath></defs></svg>